<?xml version="1.0" encoding="utf-8"?>
<!-- Generator: Adobe Illustrator 21.0.0, SVG Export Plug-In . SVG Version: 6.00 Build 0)  -->
<svg version="1.1" id="Layer_1" xmlns="http://www.w3.org/2000/svg" xmlns:xlink="http://www.w3.org/1999/xlink" x="0px" y="0px"
	 viewBox="0 0 256 256" style="enable-background:new 0 0 256 256;" xml:space="preserve">
<style type="text/css">
	.st0{fill:#FFFFFF;stroke:#F2F0F0;stroke-miterlimit:10;}
	.st1{fill:#FFFFFF;stroke:#FFF4F2;stroke-miterlimit:10;}
</style>
<g>
	<rect x="110" y="69.3" class="st0" width="35.5" height="56.2"/>
	<path class="st0" d="M145.6,69.3l-18,0.4c-5.9,0.2-11.8,0.3-17.6,0.4l0.8-0.8l0.2,14l0.1,14c0.1,9.4,0.1,18.7,0.1,28.1l-1.2-1.2
		h17.8l17.8,0.1l-1.1,1.1c0-4.6,0.1-9.2,0.2-13.9l0.2-14L145.6,69.3z M145.6,69.3l0.3,13.8c0.1,4.6,0.2,9.3,0.3,14l0.2,14.1
		c0.1,4.7,0.2,9.5,0.2,14.2c0,0.6-0.5,1.1-1.1,1.1l0,0l-17.8,0.1h-17.8c-0.7,0-1.2-0.6-1.2-1.2l0,0c0-9.4,0-18.7,0.1-28.1l0.1-14
		l0.2-14l0,0c0-0.4,0.4-0.8,0.8-0.8l0,0c6,0.1,12,0.2,18,0.4L145.6,69.3z"/>
</g>
<g>
	<polygon class="st0" points="17.7,202.7 127.8,124.2 237.9,202.7 237.9,240.8 17.7,240.8 	"/>
	<path class="st0" d="M17.7,202.7l54.6-39.6l54.9-39.6c0.3-0.2,0.8-0.2,1.1,0l0,0l27.6,19.5l27.5,19.6l55.1,39.1
		c0.3,0.2,0.5,0.6,0.5,1v38.1c0,0.7-0.5,1.2-1.2,1.2l0,0l-55-0.1l-55-0.1l-55-0.3l-55-0.4l0,0c-0.2,0-0.3-0.2-0.3-0.4l0,0
		L17.7,202.7z M17.7,202.7l0.4,38.1l-0.4-0.4l55-0.4l55-0.3l55-0.1l55-0.1l-1.2,1.2v-38.1l0.5,1l-55-39.3l-27.5-19.7L127.3,125h1.1
		l-55.1,38.9L17.7,202.7z"/>
</g>
<g>
	<g>
		<path class="st0" d="M177.2,159.4c6.3,3.8,12.5,7.9,18.7,12c6.1,4.1,12.2,8.3,18.3,12.6c6,4.3,12,8.6,17.9,13s11.8,8.9,17.5,13.6
			c-6.3-3.8-12.5-7.9-18.7-12c-6.1-4.1-12.2-8.3-18.3-12.6c-6-4.3-12-8.6-17.9-13S182.9,164.1,177.2,159.4z"/>
	</g>
	<g>
		<path class="st0" d="M78.4,159.4c-5.7,4.7-11.6,9.2-17.5,13.6C55,177.4,49,181.7,43,186s-12.1,8.5-18.3,12.6
			c-6.1,4.1-12.3,8.2-18.7,12c5.7-4.7,11.6-9.2,17.5-13.6c5.9-4.4,11.9-8.7,17.9-13c6-4.2,12.1-8.5,18.3-12.6
			C65.9,167.3,72.1,163.3,78.4,159.4z"/>
	</g>
</g>
<g>
	<polygon class="st0" points="76.6,141.8 127.8,109 179,141.8 179,240.8 76.6,240.8 	"/>
	<path class="st0" d="M76.6,141.8l25.3-16.7l25.5-16.7c0.2-0.1,0.5-0.1,0.7,0l0,0l51.4,32.5c0.3,0.2,0.5,0.5,0.5,0.8l0,0l0.2,99
		c0,0.6-0.5,1.2-1.2,1.2l0,0l-51.2-0.1l-25.6-0.1l-25.6-0.1l0,0c-0.5,0-0.9-0.4-0.9-0.9l0,0l0.3-49.6L76.6,141.8z M76.6,141.8
		l0.5,49.6l0.3,49.4l-0.9-0.9l25.6-0.1l25.6-0.1l51.2-0.1l-1.2,1.2l0.2-99l0.5,0.8l-51-33.1h0.7l-25.7,16.1L76.6,141.8z"/>
</g>
<g>
	<path class="st0" d="M190.8,149.4c-5.4-3.1-10.7-6.4-16.1-9.6c-5.3-3.2-10.6-6.5-15.9-9.8c-10.6-6.6-21.1-13.2-31.7-20h1.3
		c-10.5,6.7-21,13.4-31.7,20c-5.3,3.3-10.6,6.6-15.9,9.8c-5.4,3.2-10.7,6.5-16.1,9.6c5.1-3.6,10.3-7,15.4-10.6
		c5.2-3.5,10.4-6.9,15.6-10.4c10.4-6.9,20.9-13.7,31.4-20.4c0.4-0.3,0.9-0.2,1.3,0c10.5,6.7,21,13.5,31.4,20.4
		c5.2,3.4,10.4,6.9,15.6,10.4C180.5,142.3,185.7,145.8,190.8,149.4z"/>
</g>
<g>
	<polyline class="st0" points="110,69.3 127.8,43.3 145.6,69.3 	"/>
	<path class="st0" d="M110,69.3c1.3-2.3,2.6-4.6,3.9-6.8c1.4-2.2,2.7-4.5,4.1-6.7c2.8-4.4,5.7-8.8,8.7-13.1c0.4-0.6,1.2-0.7,1.7-0.3
		c0.1,0.1,0.3,0.2,0.3,0.3l4.4,6.5c1.4,2.2,2.9,4.4,4.3,6.6c1.4,2.2,2.8,4.4,4.1,6.7s2.7,4.5,3.9,6.8c-1.7-2-3.3-4.1-4.9-6.1
		c-1.6-2.1-3.2-4.2-4.7-6.3c-1.6-2.1-3.1-4.2-4.6-6.4l-4.5-6.4h2.1c-3,4.3-6,8.6-9.1,12.8c-1.5,2.1-3.1,4.2-4.7,6.3
		C113.3,65.2,111.7,67.3,110,69.3z"/>
</g>
<g>
	<path class="st0" d="M104.9,69.3c3.8-0.5,7.6-0.8,11.4-1s7.6-0.3,11.4-0.3c3.8,0,7.6,0.1,11.4,0.3c3.8,0.2,7.6,0.5,11.4,1
		c-3.8,0.5-7.6,0.8-11.4,1c-3.8,0.2-7.6,0.3-11.4,0.3c-3.8,0-7.6-0.1-11.4-0.3C112.5,70,108.7,69.8,104.9,69.3z"/>
</g>
<g>
	<g>
		<path class="st0" d="M127.8,43.3c-0.4-2.4-0.6-4.9-0.7-7.3c-0.1-2.4-0.2-4.9-0.2-7.3s0.1-4.9,0.2-7.3s0.3-4.9,0.7-7.3
			c0.4,2.4,0.6,4.9,0.7,7.3c0.1,2.4,0.2,4.9,0.2,7.3s-0.1,4.9-0.2,7.3C128.4,38.4,128.2,40.9,127.8,43.3z"/>
	</g>
	<g>
		<path class="st0" d="M135.8,25.3c-1.3,0.4-2.7,0.6-4,0.7s-2.7,0.2-4,0.2s-2.7-0.1-4-0.2s-2.7-0.3-4-0.7c1.3-0.4,2.7-0.6,4-0.7
			s2.7-0.2,4-0.2s2.7,0.1,4,0.2C133.1,24.7,134.4,24.9,135.8,25.3z"/>
	</g>
</g>
<g>
	<path class="st0" d="M127.8,78.6c-2.3,1.1-2.9,3.4-2.9,3.4v11.4h5.8V82.1C130.7,82.1,130.1,79.8,127.8,78.6z"/>
	<path class="st0" d="M127.8,78.6c-0.3,0.2-0.6,0.5-0.9,0.8s-0.5,0.6-0.7,0.9s-0.4,0.6-0.5,1c-0.1,0.3-0.2,0.7-0.3,1v-0.1
		c0.2,1.9,0.3,3.8,0.4,5.7c0.1,0.9,0.1,1.9,0.1,2.8s0.1,1.9,0.1,2.8l-1.2-1.2h2.9h2.9l-1.2,1.2c0-0.9,0-1.9,0.1-2.8
		c0-0.9,0.1-1.9,0.1-2.8l0.2-2.8l0.2-2.8v0.1c0-0.3-0.2-0.7-0.3-1s-0.3-0.7-0.5-1s-0.4-0.6-0.7-0.9
		C128.4,79.1,128.1,78.9,127.8,78.6z M127.8,78.6c0.4,0.1,0.8,0.3,1.1,0.5s0.7,0.5,1,0.7c0.3,0.3,0.6,0.6,0.8,0.9
		c0.2,0.4,0.4,0.7,0.6,1.1l0,0v0.1l0.2,2.8l0.2,2.8c0.1,0.9,0.1,1.9,0.1,2.8s0.1,1.9,0.1,2.8c0,0.7-0.5,1.2-1.2,1.2l0,0h-2.9h-2.9
		l0,0c-0.7,0-1.2-0.5-1.2-1.2c0-0.9,0-1.9,0.1-2.8c0-0.9,0.1-1.9,0.1-2.8c0.1-1.9,0.2-3.8,0.4-5.7v-0.1l0,0c0.2-0.4,0.4-0.8,0.6-1.1
		c0.2-0.3,0.5-0.7,0.8-0.9c0.3-0.3,0.6-0.5,1-0.7C127,78.9,127.4,78.7,127.8,78.6z"/>
</g>
<g>
	<g>
		<g>
			<path class="st0" d="M161.9,174.2c-5.1,2.5-6.5,7.7-6.5,7.7v50.2h12.9v-50.2C168.4,181.9,167.1,176.7,161.9,174.2z"/>
			<path class="st0" d="M161.9,174.2c-0.8,0.4-1.5,0.9-2.1,1.5c-0.7,0.6-1.2,1.2-1.7,1.9s-1,1.4-1.3,2.2c-0.4,0.7-0.7,1.6-0.9,2.3
				V182c0.1,4.2,0.3,8.4,0.4,12.6l0.2,12.6l0.2,12.6l0.1,12.6l-1.2-1.2c4.3,0,8.6,0,12.9,0l-1.2,1.2c0-4.2,0-8.4,0.1-12.6l0.1-12.6
				l0.2-12.6c0.1-4.2,0.2-8.4,0.3-12.6v0.1c-0.2-0.8-0.5-1.6-0.9-2.3c-0.4-0.8-0.8-1.5-1.3-2.2s-1.1-1.3-1.7-1.9
				C163.4,175.1,162.7,174.6,161.9,174.2z M161.9,174.2c0.8,0.4,1.6,0.8,2.3,1.3s1.4,1.1,1.9,1.8c0.6,0.7,1.1,1.4,1.6,2.1
				c0.4,0.8,0.8,1.6,1.1,2.4c0,0,0,0,0,0.1l0,0c0.1,4.2,0.3,8.4,0.3,12.6l0.2,12.6l0.1,12.6c0.1,4.2,0,8.4,0.1,12.6
				c0,0.7-0.5,1.2-1.2,1.2l0,0c-4.3,0-8.6,0-12.9,0l0,0c-0.7,0-1.2-0.6-1.2-1.2l0,0l0.1-12.6l0.2-12.6l0.2-12.6
				c0.1-4.2,0.2-8.4,0.4-12.6l0,0c0,0,0,0,0-0.1c0.3-0.9,0.7-1.7,1.1-2.4c0.4-0.8,1-1.5,1.5-2.1c0.6-0.7,1.2-1.3,1.9-1.8
				C160.4,175,161.2,174.6,161.9,174.2z"/>
		</g>
		<g>
			<path class="st0" d="M93.2,174.2c-5.1,2.5-6.5,7.7-6.5,7.7v50.2h12.9v-50.2C99.7,181.9,98.4,176.7,93.2,174.2z"/>
			<path class="st0" d="M93.2,174.2c-0.8,0.4-1.5,0.9-2.1,1.5c-0.7,0.6-1.2,1.2-1.7,1.9s-1,1.4-1.3,2.2c-0.4,0.7-0.7,1.6-0.9,2.3
				V182c0.1,4.2,0.3,8.4,0.4,12.6l0.2,12.6l0.2,12.6l0.1,12.6l-1.2-1.2c4.3,0,8.6,0,12.9,0l-1.2,1.2c0-4.2,0-8.4,0.1-12.6l0.1-12.6
				l0.2-12.6c0.1-4.2,0.2-8.4,0.3-12.6v0.1c-0.2-0.8-0.5-1.6-0.9-2.3c-0.4-0.8-0.8-1.5-1.3-2.2s-1.1-1.3-1.7-1.9
				C94.7,175.1,94,174.6,93.2,174.2z M93.2,174.2c0.8,0.4,1.6,0.8,2.3,1.3c0.7,0.5,1.4,1.1,1.9,1.8c0.6,0.7,1.1,1.4,1.6,2.1
				c0.4,0.8,0.8,1.6,1.1,2.4c0,0,0,0,0,0.1l0,0c0.1,4.2,0.3,8.4,0.3,12.6l0.2,12.6l0.1,12.6c0.1,4.2,0,8.4,0.1,12.6
				c0,0.7-0.5,1.2-1.2,1.2l0,0c-4.3,0-8.6,0-12.9,0l0,0c-0.7,0-1.2-0.6-1.2-1.2l0,0l0.1-12.6l0.2-12.6l0.2-12.6
				c0.1-4.2,0.2-8.4,0.4-12.6l0,0c0,0,0,0,0-0.1c0.3-0.9,0.7-1.7,1.1-2.4c0.4-0.8,1-1.5,1.5-2.1c0.6-0.7,1.2-1.3,1.9-1.8
				C91.7,175,92.5,174.6,93.2,174.2z"/>
		</g>
	</g>
	<g>
		<g>
			<path class="st0" d="M198.1,187.6c-5.1,2.5-6.5,7.7-6.5,7.7v36.8h12.9v-36.8C204.6,195.3,203.2,190.1,198.1,187.6z"/>
			<path class="st0" d="M198.1,187.6c-0.8,0.5-1.5,0.9-2.1,1.5s-1.2,1.2-1.7,1.9s-1,1.4-1.3,2.2c-0.4,0.7-0.7,1.6-0.9,2.3v-0.1
				c0.1,3.1,0.2,6.1,0.3,9.2l0.2,9.2l0.1,9.2c0.1,3.1,0.1,6.1,0.1,9.2l-1.2-1.2c4.3,0,8.6,0,12.9,0l-1.2,1.2l0.1-9.2l0.1-9.2
				c0.1-6.1,0.3-12.3,0.5-18.4v0.1c-0.2-0.8-0.5-1.6-0.9-2.3c-0.4-0.8-0.8-1.5-1.3-2.2s-1.1-1.3-1.7-1.9
				C199.5,188.5,198.8,188.1,198.1,187.6z M198.1,187.6c0.8,0.4,1.6,0.8,2.3,1.3s1.4,1.1,2,1.8s1.1,1.4,1.6,2.1
				c0.5,0.8,0.8,1.6,1.1,2.5c0,0,0,0,0,0.1l0,0c0.2,6.1,0.4,12.3,0.5,18.4l0.1,9.2l0.1,9.2c0,0.7-0.5,1.2-1.2,1.2l0,0l0,0
				c-4.3,0-8.6,0-12.9,0l0,0c-0.7,0-1.2-0.5-1.2-1.2c0-3.1,0-6.1,0.1-9.2l0.1-9.2l0.2-9.2c0.1-3.1,0.2-6.1,0.3-9.2v-0.1
				c0,0,0,0,0-0.1c0.3-0.9,0.7-1.7,1.1-2.4c0.5-0.8,1-1.5,1.6-2.1c0.6-0.7,1.2-1.3,2-1.8C196.5,188.4,197.3,188,198.1,187.6z"/>
		</g>
		<g>
			<path class="st0" d="M57.1,187.6c-5.1,2.5-6.5,7.7-6.5,7.7v36.8h12.9v-36.8C63.6,195.3,62.2,190.1,57.1,187.6z"/>
			<path class="st0" d="M57.1,187.6c-0.8,0.5-1.5,0.9-2.1,1.5s-1.2,1.2-1.7,1.9s-1,1.4-1.3,2.2c-0.4,0.7-0.7,1.6-0.9,2.3v-0.1
				c0.1,3.1,0.2,6.1,0.3,9.2l0.2,9.2l0.1,9.2c0.1,3.1,0.1,6.1,0.1,9.2l-1.2-1.2c4.3,0,8.6,0,12.9,0l-1.2,1.2l0.1-9.2l0.1-9.2
				c0.1-6.1,0.3-12.3,0.5-18.4v0.1c-0.2-0.8-0.5-1.6-0.9-2.3c-0.4-0.8-0.8-1.5-1.3-2.2s-1.1-1.3-1.7-1.9
				C58.5,188.5,57.8,188.1,57.1,187.6z M57.1,187.6c0.8,0.4,1.6,0.8,2.3,1.3s1.4,1.1,2,1.8s1.1,1.4,1.6,2.1c0.5,0.8,0.8,1.6,1.1,2.5
				c0,0,0,0,0,0.1l0,0c0.2,6.1,0.4,12.3,0.5,18.4l0.1,9.2l0.1,9.2c0,0.7-0.5,1.2-1.2,1.2l0,0l0,0c-4.3,0-8.6,0-12.9,0l0,0
				c-0.7,0-1.2-0.5-1.2-1.2c0-3.1,0-6.1,0.1-9.2l0.1-9.2l0.2-9.2c0.1-3.1,0.2-6.1,0.3-9.2v-0.1c0,0,0,0,0-0.1
				c0.3-0.9,0.7-1.7,1.1-2.4c0.5-0.8,1-1.5,1.6-2.1c0.6-0.7,1.2-1.3,2-1.8C55.5,188.4,56.3,188,57.1,187.6z"/>
		</g>
	</g>
</g>
<g>
	<g>
		<path class="st0" d="M127.8,147c-14.1,8-17.8,24.6-17.8,24.6v69.2h35.5v-69.2C145.6,171.6,141.9,155,127.8,147z"/>
		<path class="st0" d="M127.8,147l-1.6,1.1l-0.8,0.5c-0.3,0.2-0.5,0.4-0.8,0.6l-1.5,1.2l-1.4,1.3c-1.8,1.8-3.5,3.8-4.9,6
			c-1.4,2.1-2.7,4.4-3.7,6.8c-1,2.3-1.9,4.8-2.4,7.2v-0.1c0.2,11.5,0.3,23.1,0.4,34.6l0.1,17.3l0.1,17.3l-1.3-1.3h17.8h17.8
			l-1.3,1.3c0-11.5,0.1-23.1,0.2-34.6c0.1-11.5,0.2-23.1,0.4-34.6v0.1c-0.6-2.4-1.4-4.9-2.4-7.2c-1-2.4-2.3-4.6-3.7-6.8
			s-3.1-4.1-4.9-6l-1.4-1.3l-1.5-1.2c-0.3-0.2-0.5-0.4-0.8-0.6l-0.8-0.5L127.8,147z M127.8,147c2.2,1.3,4.5,2.7,6.4,4.5
			s3.7,3.7,5.2,5.8s2.9,4.4,4,6.7c1.1,2.4,2.1,4.8,2.8,7.4v0.1l0,0c0.2,11.5,0.3,23.1,0.4,34.6c0.1,11.5,0.2,23.1,0.2,34.6
			c0,0.7-0.6,1.3-1.3,1.3h-17.8h-17.8l0,0c-0.7,0-1.3-0.6-1.3-1.3l0,0l0.1-17.3l0.1-17.3c0.1-11.5,0.2-23.1,0.4-34.6l0,0v-0.1
			c0.7-2.6,1.7-5,2.8-7.4c1.1-2.4,2.5-4.6,4-6.7c1.5-2.1,3.3-4.1,5.2-5.8C123.3,149.7,125.6,148.3,127.8,147z"/>
	</g>
	<g>
		<line class="st0" x1="127.8" y1="147" x2="127.8" y2="240.8"/>
		<path class="st0" d="M127.8,147c0.6,7.8,0.8,15.6,1,23.5c0.2,7.8,0.3,15.6,0.3,23.5l-0.1,11.7c-0.1,3.9-0.1,7.8-0.2,11.7
			c-0.2,7.8-0.5,15.6-1,23.5c-0.6-7.8-0.9-15.6-1-23.5c-0.1-3.9-0.1-7.8-0.2-11.7l-0.1-11.7c0-7.8,0.1-15.6,0.3-23.5
			C126.9,162.6,127.2,154.8,127.8,147z"/>
	</g>
</g>
<g>
	<path class="st0" d="M21.5,235.5c-0.1-2.5-0.2-5-0.3-7.4l-0.2-7.4c-0.1-5-0.1-9.9-0.2-14.9c0-0.2,0.1-0.4,0.3-0.5
		c4.4-3,8.8-6,13.2-9l6.7-4.4c2.3-1.4,4.5-2.9,6.7-4.3c-2.1,1.6-4.3,3.2-6.4,4.8l-6.5,4.7c-4.3,3.1-8.7,6.1-13.1,9.2l0.3-0.5
		c0,5,0,9.9-0.2,14.9l-0.2,7.4C21.7,230.5,21.6,233,21.5,235.5z"/>
</g>
<g>
	<path class="st0" d="M231.9,206.1c0.5,5,0.6,9.9,0.6,14.9s-0.1,9.9-0.6,14.9c-0.5-5-0.6-9.9-0.6-14.9
		C231.3,216.1,231.4,211.1,231.9,206.1z"/>
</g>
<g>
	<path class="st0" d="M80.8,136c0.1,3.5,0.2,7.1,0.3,10.6l0.2,10.6c0.1,7.1,0.1,14.1,0.1,21.2c0,7.1,0,14.1-0.1,21.2L81.1,210
		c-0.1,3.5-0.2,7.1-0.3,10.6c-0.1-3.5-0.2-7.1-0.3-10.6l-0.2-10.6c-0.1-7.1-0.1-14.1-0.1-21.2c0.1-7.1,0-14.1,0.1-21.2l0.2-10.6
		C80.5,143,80.6,139.5,80.8,136z"/>
</g>
<g>
	<path class="st0" d="M114.3,75.6c0.5,6.2,0.6,12.4,0.6,18.6s-0.1,12.4-0.6,18.6c-0.5-6.2-0.6-12.4-0.6-18.6
		C113.7,88,113.9,81.8,114.3,75.6z"/>
</g>
<path class="st1" d="M67,98.7c0-4.2-3.4-7.6-7.6-7.6c-2.9,0-5.4,1.6-6.7,4c-1.3-2.4-3.8-4-6.7-4c-4.2,0-7.6,3.4-7.6,7.6
	c0,0.3,0,0.5,0,0.8l0,0c0,0-0.1,6.2,13.9,18.2c0,0,0.3,0.3,0.7,0c9.2-7.9,12.3-13.3,13.3-16C66.8,100.7,67,99.7,67,98.7z"/>
<path class="st1" d="M67,98.7c0-1.7-0.6-3.3-1.6-4.6c-1-1.3-2.5-2.2-4.1-2.6S58,91.3,56.6,92s-2.6,1.9-3.3,3.3
	c-0.1,0.3-0.4,0.4-0.7,0.2c-0.1,0-0.2-0.1-0.2-0.2l0,0c-0.8-1.4-2.1-2.5-3.6-3s-3.1-0.5-4.5,0s-2.6,1.5-3.4,2.8
	c-0.8,1.3-1.1,2.8-0.9,4.2l0,0c0.1,0.7-0.4,1.3-1.1,1.3h-0.1l0,0l1.2-1.2c0,0,0,0.3,0.1,0.4c0,0.2,0.1,0.4,0.2,0.6
	c0.1,0.4,0.3,0.8,0.5,1.2c0.4,0.8,0.8,1.6,1.3,2.4c1,1.6,2.1,3.1,3.3,4.6c0.6,0.7,1.2,1.5,1.9,2.2s1.3,1.4,1.9,2.1
	c0.7,0.7,1.3,1.4,2,2.1l2.1,2l0.1,0.1c-0.1-0.1-0.1,0-0.2-0.1c-0.1,0-0.1,0-0.1,0l0.6-0.5l1.2-1c0.8-0.7,1.6-1.3,2.3-2
	c1.5-1.4,3-2.8,4.4-4.3s2.7-3.2,3.8-4.9c0.5-0.9,1-1.8,1.4-2.8C66.7,100.8,67,99.7,67,98.7z M67,98.7c0,1-0.2,2.1-0.6,3
	c-0.4,1-0.8,1.9-1.3,2.8c-1,1.8-2.2,3.5-3.5,5.1s-2.7,3.2-4.1,4.7c-0.7,0.8-1.5,1.5-2.2,2.2l-1.1,1.1l-0.6,0.6
	c-0.2,0.1-0.5,0.3-0.8,0.3c-0.4,0-0.6-0.1-0.9-0.4l0.1,0.1l-2.3-1.9c-0.8-0.6-1.5-1.3-2.2-1.9c-1.5-1.3-2.9-2.7-4.2-4.2
	s-2.5-3.1-3.6-4.8c-0.5-0.9-1-1.8-1.4-2.7c-0.2-0.5-0.4-1-0.5-1.5c-0.1-0.3-0.1-0.5-0.2-0.8c-0.1-0.3-0.1-0.5-0.1-1
	c0-0.6,0.5-1.2,1.1-1.2l0,0h0.1l0,0l-1.2,1.3c-0.2-2,0.3-4.1,1.5-5.7c1.1-1.6,2.8-2.9,4.7-3.4s3.9-0.4,5.7,0.4
	c1.7,0.8,3.2,2.2,4,3.8h-0.9c0.9-1.5,2.3-2.7,4-3.4c1.6-0.6,3.4-0.7,5.1-0.2c1.7,0.4,3.1,1.5,4.1,2.8C66.5,95.3,67,97,67,98.7z"/>
<g>
	<path class="st1" d="M75.7,68.8c0-2.6-2.1-4.7-4.7-4.7c-1.8,0-3.3,1-4.1,2.4c-0.8-1.4-2.3-2.4-4.1-2.4c-2.6,0-4.7,2.1-4.7,4.7
		c0,0.2,0,0.3,0,0.5l0,0c0,0-0.1,3.8,8.5,11.2c0,0,0.2,0.2,0.4,0c5.7-4.8,7.5-8.1,8.2-9.8C75.6,70.1,75.7,69.5,75.7,68.8z"/>
	<path class="st1" d="M75.7,68.8c0-1-0.4-2.1-1-2.8c-0.6-0.8-1.6-1.3-2.5-1.5c-1-0.2-2-0.1-2.9,0.4c-0.9,0.4-1.5,1.2-1.9,2
		c-0.1,0.3-0.4,0.4-0.7,0.3c-0.1,0-0.2-0.1-0.2-0.2v-0.1c-0.5-0.8-1.3-1.4-2.2-1.6c-0.9-0.3-1.8-0.2-2.6,0.1
		c-0.8,0.3-1.4,0.9-1.9,1.6c-0.4,0.7-0.5,1.5-0.5,2.3v0.2c0-0.1,0,0.1,0,0.2s0,0.2,0.1,0.3c0.1,0.2,0.2,0.5,0.3,0.7
		c0.2,0.5,0.5,1,0.7,1.4c0.6,0.9,1.2,1.9,1.9,2.8s1.5,1.8,2.3,2.6c0.8,0.9,1.6,1.7,2.4,2.5l0.1,0.1C67,80,66.9,80,66.8,80
		c-0.1,0-0.2,0.1-0.2,0.1l0.4-0.3l0.8-0.6c0.5-0.4,1-0.8,1.5-1.2c1-0.8,1.9-1.7,2.8-2.6s1.7-1.9,2.3-3
		C75.1,71.3,75.7,70.1,75.7,68.8z M75.7,68.8c0,0.6-0.1,1.3-0.4,1.9c-0.2,0.6-0.5,1.2-0.8,1.7c-0.6,1.1-1.3,2.2-2.1,3.2
		c-0.8,1-1.6,2-2.5,3c-0.4,0.5-0.9,0.9-1.3,1.4L68,80.7L67.6,81c-0.1,0.1-0.4,0.3-0.7,0.3c-0.3,0-0.5-0.1-0.7-0.3l0.1,0.1
		c-1-0.7-1.9-1.5-2.8-2.3c-0.9-0.8-1.8-1.7-2.6-2.6s-1.6-1.9-2.3-3c-0.3-0.5-0.7-1.1-0.9-1.7c-0.1-0.3-0.3-0.6-0.4-1
		c-0.1-0.2-0.1-0.4-0.1-0.5c0-0.2-0.1-0.3-0.1-0.7v0.2c-0.1-1.3,0.2-2.7,1-3.8c0.8-1.1,1.9-1.9,3.2-2.2s2.6-0.2,3.7,0.4
		c1.1,0.5,2,1.5,2.5,2.5h-0.9c0.6-1,1.5-1.7,2.6-2.1c1-0.4,2.2-0.4,3.2-0.1s1.9,1,2.5,1.8C75.4,66.8,75.7,67.8,75.7,68.8z"/>
</g>
</svg>
