<svg xmlns="http://www.w3.org/2000/svg" viewBox="0 0 175.83 127.55"><title>ktima2</title><path d="M207.87,174.92c-.24-.07-.49-.1-.73-.16,0,0,0-.09,0-.14a92.28,92.28,0,0,0-6.88-33c-3.62-8.62-8.19-18.15-14.52-24.71-7.06-7.32-16.73-13.69-25.53-18-7.75-3.79-15.79-4.9-24-4.86,0,0,0,0,0-.06.11-3.18-.37-7,.68-10.07h.29c.75,0,1.05-1.12,1-1.79l-.29-2.3C140.37,78.54,141.62,75,141,72a8.68,8.68,0,0,0-8.76-7.06c-3.71.27-7,3.57-7.84,7.58-.43,2.13.1,6.6,2.33,7.25a3.2,3.2,0,0,0-.24,1,4.45,4.45,0,0,0,1.31,4c.32.27.59.11.78-.23,2.28-.08,4.53-.42,6.82-.5a26.24,26.24,0,0,0-.42,3.66,17,17,0,0,0,.5,6.46c-1.78,0-3.57.08-5.37.19-10.65.67-21.47,1.4-31.37,6.18a66.15,66.15,0,0,0-20.53,16,105.07,105.07,0,0,0-16.66,26.82c-4.15,9.29-8.67,19.65-8.34,30.24-3.77.2-7.42.94-10.7,3.38A.7.7,0,0,0,42,177c-.68.36-.84,1.52-.81,2.23s.67,3.36,1.66,3.51c0,.14.07.26.18.26,1.22,0,2.43,0,3.65,0a1.12,1.12,0,0,0,0,.19,11.57,11.57,0,0,0,3.49,7.22.36.36,0,0,0,.44,0l.27-.18s0,0,0-.07c0,.23.15.4.34.42,25.61,2.36,51.67,1.25,77.35,1.27,12.83,0,25.66-.06,38.5-.09s26.66-1.44,39.42.76c.27,0,.49-.15.65-.44a2.16,2.16,0,0,0,.46-1.17,1,1,0,0,0,0-.36c1.36-2.27,3.35-4.23,4.18-6.79a1,1,0,0,0,0-.2c1.3-.08,2.61-.17,3.9-.29.35,0,.52-1.07.13-1.12-14.32-2-29.37-.94-43.79-1.27s-28.78-.5-43.18-.6c-28.33-.19-56.87-.42-85.16,1.64,0,0,0-.09,0-.13-.58-1-1.65-1.53-1.45-2.95.12-.84.09-.42.58-.89.07-.06.17-.1.22-.19a.18.18,0,0,0,0-.11s0,0,0-.05c6.26-3.76,14.13-2.3,21-2.13,7.07.18,14.14.37,21.21.52,15,.31,30,.61,44.94.76,13.91.14,27.76-.18,41.66-.89,7.68-.39,15.37-1.17,23.06-.74a101.94,101.94,0,0,1,10.68.85c.17.4.51.37.84.14,4.79.84,9.2,2.47,9.69,5.83.15,1,1,.07.89-.62C216.24,176.53,211.49,175.9,207.87,174.92Zm-77,7.55c14,.12,28,.49,42,.6,12.51.1,25.4,1.24,38,.53a25.89,25.89,0,0,0-2.84,3.93,12.55,12.55,0,0,0-1.63,2.54c-12.42-1-25.22,0-37.68-.1-13.2-.12-26.41-.28-39.61-.35-25.73-.15-51.74,1.14-77.42-.92-.26,0-.47.22-.6.53-.25-1.06-1.16-1.68-1.74-2.61A10.24,10.24,0,0,1,47.9,183C75.55,183.1,103.21,182.23,130.87,182.46ZM128.06,79c-2.08-2.27-3.64-4.08-2.05-7.68a7.51,7.51,0,0,1,5.75-4.4c5.7-.71,11.36,7.25,5.19,11.47a.62.62,0,0,0-.16.2,33.58,33.58,0,0,0-8.71.45Zm.82,3.8a.81.81,0,0,0-.08-.24,3.16,3.16,0,0,1-.4-.78,38.22,38.22,0,0,1,8-.5l0,.16A21.94,21.94,0,0,0,128.87,82.8Zm58.32,90.39c-17.67,1.43-35.33,1.54-53,1.41-16.56-.12-33.12-.58-49.68-.83-8.66-.13-17.32-.22-26-.32-1.48,0-3,0-4.42,0,0,0,0-.06,0-.1-.2-11.68,5.67-24,10.74-34a94.66,94.66,0,0,1,16.74-24C95.83,101,112.5,97.91,131.13,96.91c10.62-.57,20.64.54,30.3,5.74A107.59,107.59,0,0,1,183.17,118c6.93,6.44,11.8,16.46,15.57,25.45a90.27,90.27,0,0,1,6.68,30.89A60.4,60.4,0,0,0,187.2,173.19Z" transform="translate(-41.17 -64.93)" style="fill:#f2f0f0"/><path d="M130.16,90.81c-.1-1.81-.17-3.62-.3-5.43a.88.88,0,0,0-.5-.81l-.14,0c-.19-.06-.35.16-.44.3-.66,1-.39,2.22-.31,3.4l.34,4.78c0,.53.38.88.84.66l0,0s.06,0,.14-.13h0a2.24,2.24,0,0,0,.39-1.48v0C130.22,91.62,130.18,91.2,130.16,90.81Z" transform="translate(-41.17 -64.93)" style="fill:#f2f0f0"/><path d="M131.3,153.9c-2-2.72-5.43-4.19-7.55-7.06a22.17,22.17,0,0,1-4-9.67,8.74,8.74,0,0,1,8.73,6.18c.34,1.09,1.31-.48,1.1-1.18a9.77,9.77,0,0,0-10.66-7c-.56.07-.73,1-.69,1.43a24,24,0,0,0,3.94,11c1.78,2.62,5.38,7.2,8.79,7.17C131.32,154.76,131.49,154.16,131.3,153.9Z" transform="translate(-41.17 -64.93)" style="fill:#fff4f2"/><path d="M137.44,136c-4.3-2.4-9.92,6.36-6.57,7.72.08,0,.09-.13.08-.17-1-4.16,3.23-7.8,6.71-5.56,4.32,2.78-1,8.46-3,10.89-1.57,2-2.82,3.87-3.06,6.39-.06.6.55.72.74.16,1.57-4.61,5.8-7.51,7.27-12.08C140.47,140.75,140,137.45,137.44,136Z" transform="translate(-41.17 -64.93)" style="fill:#fff4f2"/><path d="M166.26,143.45c-2.25-2.73-4.35,1.67-4.74,3.36-.2.88.66,1.07.87.19a7.38,7.38,0,0,1,.65-1.91,1.67,1.67,0,0,1,2.33-.58c.44.81-.62,1.87-1,2.42l-3.06,4.29a38.92,38.92,0,0,1-4.64-5.69,3.93,3.93,0,0,1,2.28.46,8.51,8.51,0,0,1,2,1.53c.12.2.29-.2.24-.32-.56-1.46-.56-2.12-2.18-2.85a4.63,4.63,0,0,0-3.5-.15,1,1,0,0,0-.42,1.41,40.14,40.14,0,0,0,5.91,7.3c.21.2.48-.09.59-.24,1.53-2.16,3.56-4.36,4.72-6.73A2.28,2.28,0,0,0,166.26,143.45Z" transform="translate(-41.17 -64.93)" style="fill:#fff4f2"/><path d="M100.21,143.83l-2.68,1.54c-.53.3-.53,1.9.19,1.48l2-1.15a9.27,9.27,0,0,1-2.26,5.4c-1.76-1-4.9-3.1-4.45-5.33a29.72,29.72,0,0,0,4.24,2.89c.54.27.74-.81.44-1.12A39.93,39.93,0,0,0,93.13,144c-.22-.16-.5,0-.6.25-1.95,3.78,1.57,6.88,4.65,8.54a.39.39,0,0,0,.51-.11,11.68,11.68,0,0,0,3.12-8.21C100.81,144.14,100.65,143.58,100.21,143.83Z" transform="translate(-41.17 -64.93)" style="fill:#fff4f2"/></svg>