<?xml version="1.0" encoding="utf-8"?>
<!-- Generator: Adobe Illustrator 21.0.0, SVG Export Plug-In . SVG Version: 6.00 Build 0)  -->
<svg version="1.1" id="Layer_1" xmlns="http://www.w3.org/2000/svg" xmlns:xlink="http://www.w3.org/1999/xlink" x="0px" y="0px"
	 viewBox="0 0 256 256" style="enable-background:new 0 0 256 256;" xml:space="preserve">
<style type="text/css">
	.st0{fill:#FFFFFF;}
	.st1{fill:#F2F0F0;}
	.st2{fill:#FFF4F2;}
	.st3{fill:none;stroke:#FFF4F2;stroke-width:1.3492;stroke-linecap:round;stroke-linejoin:round;stroke-miterlimit:10;}
</style>
<g>
	<polygon class="st0" points="135.6,233.4 119.2,233.4 116.4,208.3 138.5,208.3 	"/>
	<path class="st1" d="M135.6,233.4c-5.2,0.3-10.7,0.7-16.3,0.9c-0.4,0-0.8-0.3-0.9-0.7l0-0.1c-0.3-2.1-0.6-4.2-0.9-6.2
		c-0.3-2.1-0.6-4.2-0.9-6.2c-0.6-4.2-1.1-8.3-1.6-12.5c-0.1-0.7,0.4-1.4,1.2-1.5c0,0,0.1,0,0.1,0l0,0c3.7,0,7.4,0,11.1,0
		c3.7,0,7.4,0.1,11.1,0.2l0,0c0.6,0,1.1,0.5,1.1,1.1c0,0,0,0.1,0,0.1l-0.9,6.4c-0.3,2.1-0.7,4.2-1,6.3
		C137,225.3,136.3,229.4,135.6,233.4z M135.6,233.4l0.8-12.9l0.4-6.2l0.5-6.1l1.1,1.3c-3.7,0.1-7.4,0.2-11.1,0.2
		c-3.7,0-7.4,0.1-11.1,0l1.3-1.5c0.5,4.2,0.9,8.4,1.3,12.5c0.2,2.1,0.4,4.2,0.6,6.3c0.2,2.1,0.4,4.2,0.5,6.3l-0.9-0.8
		C124.5,232.7,129.9,233.1,135.6,233.4z"/>
</g>
<g>
	<path class="st0" d="M229.3,208.3H25.6c-2.5,0-4.5-2-4.5-4.5l0,0c0-2.5,2-4.5,4.5-4.5h203.7c2.5,0,4.5,2,4.5,4.5l0,0
		C233.7,206.3,231.7,208.3,229.3,208.3z"/>
	<path class="st1" d="M229.3,208.3c-18.1,0-36.3,0.1-54.4,0.2l-54.4,0.5L66,209.5l-27.2,0.1l-6.8,0l-3.4,0l-1.7,0l-0.9,0l-0.4,0
		l-0.6,0c-1.5-0.1-2.9-0.9-3.8-2c-1-1.1-1.5-2.6-1.4-4.1c0.1-1.5,0.7-2.9,1.8-3.9c1.1-1,2.5-1.6,4-1.6c18.1,0,36.3,0.1,54.4,0.2
		l54.4,0.5l54.4,0.5l27.2,0.1c4.5,0,9.1,0,13.6,0c1.1,0.1,2.2,0.7,3,1.6c0.7,0.9,1.1,2,1.1,3.1c-0.1,1.1-0.6,2.2-1.4,3
		C231.5,207.9,230.4,208.3,229.3,208.3z M229.3,208.3c1.1,0,2.3-0.5,3.1-1.2c0.8-0.8,1.3-1.9,1.4-3c0.1-1.1-0.3-2.3-1.1-3.1
		c-0.7-0.9-1.8-1.4-2.9-1.5c-4.5,0-9.1,0-13.6,0l-27.2,0.1l-54.4,0.5L80,200.5c-18.1,0.1-36.3,0.2-54.4,0.2c-1.6,0-3.1,1.4-3.1,3
		c0,0.8,0.2,1.6,0.8,2.2c0.5,0.6,1.3,1,2.1,1.1l13.5,0l27.2,0.1l54.4,0.5l54.4,0.5C193,208.2,211.1,208.3,229.3,208.3z"/>
</g>
<g>
	<path class="st0" d="M153.5,240.5h-52.1c-2,0-3.5-1.6-3.5-3.5l0,0c0-2,1.6-3.5,3.5-3.5h52.1c2,0,3.5,1.6,3.5,3.5l0,0
		C157,238.9,155.4,240.5,153.5,240.5z"/>
	<path class="st1" d="M153.5,240.5c-5.3,0-10.5,0.1-15.8,0.2l-15.8,0.5l-15.8,0.5l-4,0.1l-0.5,0l-0.3,0l-0.3,0
		c-0.4,0-0.9-0.1-1.3-0.3c-0.8-0.3-1.6-0.8-2.2-1.5c-1.1-1.4-1.4-3.5-0.5-5.1c0.8-1.6,2.5-2.8,4.4-2.8c10.5,0,21.1,0.3,31.6,0.7
		c5.3,0.2,10.5,0.4,15.8,0.5l4,0.1c0.6,0,1.3,0,2,0.3c0.6,0.2,1.2,0.7,1.6,1.2c0.8,1.1,1,2.6,0.4,3.8
		C156.1,239.7,154.8,240.5,153.5,240.5z M153.5,240.5c1.3,0,2.6-0.8,3.2-2c0.6-1.2,0.4-2.7-0.4-3.7c-0.4-0.5-0.9-0.9-1.6-1.1
		c-0.6-0.2-1.3-0.2-1.9-0.2l-4,0.1c-5.3,0.1-10.5,0.3-15.8,0.5c-10.5,0.4-21.1,0.7-31.6,0.7c-0.8,0-1.6,0.5-2,1.2
		c-0.4,0.7-0.3,1.7,0.2,2.3c0.3,0.3,0.6,0.6,1,0.8c0.2,0.1,0.4,0.1,0.6,0.2l0.2,0l0.2,0l0.5,0l4,0.1l15.8,0.5l15.8,0.5
		C142.9,240.4,148.2,240.4,153.5,240.5z"/>
</g>
<g>
	<path class="st0" d="M182.1,147.1H72.7v-35.6c0-7.6,6.2-13.7,13.7-13.7h81.9c7.6,0,13.7,6.2,13.7,13.7V147.1z"/>
	<path class="st1" d="M182.1,147.1l-27.1,0.4l-13.6,0.2l-13.7,0.1l-27.4,0.3c-9.2,0.1-18.4,0.1-27.5,0.2c-0.7,0-1.2-0.5-1.2-1.2l0,0
		l-0.1-24.5l0-6.1l0-3.1c0-1,0-2,0-3.2c0.3-4.5,2.8-8.7,6.6-11.2c1.9-1.2,4-2.1,6.2-2.4c1.1-0.2,2.3-0.2,3.3-0.2l3.1,0l12.3,0
		l24.5,0.1c8.2,0,16.4,0.1,24.5,0.2l12.3,0.1l3.1,0c1,0,2.1,0,3.2,0.2c2.1,0.3,4.2,1.2,6,2.4c3.6,2.4,6,6.5,6.2,10.8
		c0.1,1.1,0,2.1,0,3.1l-0.1,3.1l-0.1,6.2L182.1,147.1z M182.1,147.1l-0.4-24.6l-0.1-6.1l-0.1-3c0-1,0-2-0.1-3
		c-0.3-3.9-2.6-7.5-5.8-9.6c-1.6-1.1-3.5-1.8-5.4-2c-1-0.1-1.9-0.1-2.9-0.1l-3.1,0L152,98.7c-8.2,0.1-16.4,0.1-24.5,0.2L102.9,99
		l-12.3,0l-3.1,0c-1.1,0-1.9,0-2.9,0.1c-1.8,0.3-3.6,1-5.1,2c-3.1,2-5.2,5.5-5.5,9.2c-0.1,0.9,0,1.9-0.1,3l0,3.1l0,6.1l-0.1,24.5
		l-1.2-1.2c9,0,18.1,0.1,27.1,0.2l27.2,0.3l13.7,0.1l13.7,0.2L182.1,147.1z"/>
</g>
<g>
	<path class="st2" d="M72.7,127.3c1.3,0,2.6,0.1,3.8,0.6c1.2,0.5,2.3,1.3,3.3,2c1,0.8,2,1.5,3.1,1.9c1.1,0.4,2.3,0.6,3.5,0.6
		c1.2-0.1,2.4-0.3,3.4-0.8c1-0.5,1.9-1.3,2.9-2.1c0.9-0.8,2-1.8,3.3-2.3c1.3-0.6,2.7-0.9,4.1-0.9c1.4,0,2.8,0.2,4.2,0.8
		c1.3,0.6,2.5,1.5,3.4,2.3c1,0.8,1.9,1.5,2.9,1.9c1,0.4,2.1,0.6,3.2,0.6c1.1,0,2.2-0.2,3.2-0.7c1-0.4,1.9-1.1,2.8-2
		c1-0.8,2.1-1.7,3.4-2.3c1.4-0.6,2.8-0.9,4.2-0.9c1.4,0,2.9,0.3,4.2,0.9c1.4,0.6,2.5,1.5,3.4,2.4c1,0.8,1.8,1.5,2.8,2
		c1,0.4,2,0.6,3.2,0.6c1.1,0,2.2-0.2,3.2-0.6c1-0.4,1.9-1.1,2.9-1.9c1-0.8,2.1-1.7,3.4-2.3c1.3-0.6,2.8-0.8,4.2-0.8
		c1.4,0,2.8,0.3,4.1,0.9c1.3,0.6,2.4,1.5,3.3,2.4c0.9,0.8,1.8,1.6,2.9,2.1c1,0.5,2.2,0.7,3.4,0.8c1.2,0,2.4-0.1,3.5-0.6
		c1.1-0.4,2.1-1.2,3.1-1.9c1-0.8,2.1-1.6,3.3-2c1.2-0.5,2.5-0.6,3.8-0.6c-1.3,0.1-2.5,0.4-3.6,0.9c-1.1,0.6-2,1.4-3,2.2
		c-0.9,0.9-1.9,1.7-3.2,2.3c-1.2,0.6-2.6,0.9-3.9,0.9c-1.3,0-2.7-0.2-4-0.7c-1.3-0.5-2.4-1.4-3.4-2.2c-1-0.8-1.9-1.5-3-1.9
		c-1-0.4-2.1-0.6-3.3-0.6c-1.2,0-2.3,0.2-3.2,0.7c-1,0.5-1.9,1.2-2.8,2c-1,0.8-2,1.7-3.4,2.4c-1.3,0.6-2.8,0.9-4.2,0.9
		c-1.4,0-2.9-0.2-4.2-0.8c-1.4-0.6-2.5-1.5-3.5-2.3c-1-0.8-1.9-1.5-2.8-1.9c-1-0.4-2-0.6-3.2-0.6c-1.1,0-2.2,0.2-3.2,0.6
		c-1,0.4-1.9,1.1-2.8,1.9c-1,0.8-2.1,1.7-3.4,2.3c-1.4,0.6-2.8,0.8-4.2,0.8c-1.4,0-2.9-0.3-4.2-0.9c-1.3-0.6-2.4-1.5-3.4-2.4
		c-1-0.8-1.8-1.6-2.8-2c-1-0.5-2.1-0.7-3.2-0.7c-1.2,0-2.3,0.1-3.3,0.6c-1,0.4-2,1.1-3,1.9c-1,0.8-2.1,1.6-3.4,2.2
		c-1.3,0.5-2.7,0.7-4,0.7c-1.3-0.1-2.7-0.3-3.9-0.9c-1.2-0.6-2.2-1.5-3.2-2.3c-0.9-0.9-1.9-1.7-3-2.2
		C75.3,127.7,74,127.4,72.7,127.3z"/>
</g>
<g>
	<path class="st2" d="M72.7,119.6c1.3,0,2.6,0.1,3.8,0.6c1.2,0.5,2.3,1.3,3.3,2c1,0.8,2,1.5,3.1,1.9c1.1,0.4,2.3,0.6,3.5,0.6
		c1.2-0.1,2.4-0.3,3.4-0.8c1-0.5,1.9-1.3,2.9-2.1c0.9-0.8,2-1.8,3.3-2.3c1.3-0.6,2.7-0.9,4.1-0.9c1.4,0,2.8,0.2,4.2,0.8
		c1.3,0.6,2.5,1.5,3.4,2.3c1,0.8,1.9,1.5,2.9,1.9c1,0.4,2.1,0.6,3.2,0.6c1.1,0,2.2-0.2,3.2-0.7c1-0.4,1.9-1.1,2.8-2
		c1-0.8,2.1-1.7,3.4-2.3c1.4-0.6,2.8-0.9,4.2-0.9c1.4,0,2.9,0.3,4.2,0.9c1.4,0.6,2.5,1.5,3.4,2.4c1,0.8,1.8,1.5,2.8,2
		c1,0.4,2,0.6,3.2,0.6c1.1,0,2.2-0.2,3.2-0.6c1-0.4,1.9-1.1,2.9-1.9c1-0.8,2.1-1.7,3.4-2.3c1.3-0.6,2.8-0.8,4.2-0.8
		c1.4,0,2.8,0.3,4.1,0.9c1.3,0.6,2.4,1.5,3.3,2.4c0.9,0.8,1.8,1.6,2.9,2.1c1,0.5,2.2,0.7,3.4,0.8c1.2,0,2.4-0.1,3.5-0.6
		c1.1-0.4,2.1-1.2,3.1-1.9c1-0.8,2.1-1.6,3.3-2c1.2-0.5,2.5-0.6,3.8-0.6c-1.3,0.1-2.5,0.4-3.6,0.9c-1.1,0.6-2,1.4-3,2.2
		c-0.9,0.9-1.9,1.7-3.2,2.3c-1.2,0.6-2.6,0.9-3.9,0.9c-1.3,0-2.7-0.2-4-0.7c-1.3-0.5-2.4-1.4-3.4-2.2c-1-0.8-1.9-1.5-3-1.9
		c-1-0.4-2.1-0.6-3.3-0.6c-1.2,0-2.3,0.2-3.2,0.7c-1,0.5-1.9,1.2-2.8,2c-1,0.8-2,1.7-3.4,2.4c-1.3,0.6-2.8,0.9-4.2,0.9
		c-1.4,0-2.9-0.2-4.2-0.8c-1.4-0.6-2.5-1.5-3.5-2.3c-1-0.8-1.9-1.5-2.8-1.9c-1-0.4-2-0.6-3.2-0.6c-1.1,0-2.2,0.2-3.2,0.6
		c-1,0.4-1.9,1.1-2.8,1.9c-1,0.8-2.1,1.7-3.4,2.3c-1.4,0.6-2.8,0.8-4.2,0.8c-1.4,0-2.9-0.3-4.2-0.9c-1.3-0.6-2.4-1.5-3.4-2.4
		c-1-0.8-1.8-1.6-2.8-2c-1-0.5-2.1-0.7-3.2-0.7c-1.2,0-2.3,0.1-3.3,0.6c-1,0.4-2,1.1-3,1.9c-1,0.8-2.1,1.6-3.4,2.2
		c-1.3,0.5-2.7,0.7-4,0.7c-1.3-0.1-2.7-0.3-3.9-0.9c-1.2-0.6-2.2-1.5-3.2-2.3c-0.9-0.9-1.9-1.7-3-2.2C75.3,120,74,119.7,72.7,119.6z
		"/>
</g>
<g>
	<g>
		<path class="st0" d="M220,199.4H34.8v-38.5c0-7.6,6.2-13.7,13.7-13.7h157.7c7.6,0,13.7,6.2,13.7,13.7V199.4z"/>
		<path class="st1" d="M220,199.4l-92.3,0.8l-46.4,0.3l-46.5,0.1c-0.7,0-1.2-0.5-1.2-1.2l0,0l0,0l-0.1-34.7c0-1.5,0-2.8,0-4.4
			c0.1-1.6,0.4-3.2,0.9-4.7c1.1-3,3.2-5.6,5.8-7.3c1.3-0.9,2.8-1.5,4.3-2c0.8-0.2,1.6-0.4,2.3-0.4c0.8-0.1,1.6-0.1,2.3-0.1l8.7,0
			l69.5,0.2c23.2,0.1,46.3,0.3,69.5,0.4l8.7,0.1c3-0.1,6.1,0.7,8.6,2.4c2.5,1.7,4.5,4.2,5.5,7c0.5,1.4,0.8,2.9,0.8,4.4
			c0,1.5,0,2.9,0,4.4L220,199.4z M220,199.4l-0.4-34.8c0-1.4,0-2.9-0.1-4.3c-0.1-1.4-0.4-2.8-0.9-4.1c-1-2.6-2.8-4.9-5.2-6.3
			c-2.3-1.5-5.1-2.2-7.9-2.1l-8.7,0.1c-23.2,0.1-46.3,0.4-69.5,0.4l-69.5,0.2l-8.7,0c-0.8,0-1.4,0-2,0.1c-0.7,0.1-1.3,0.2-1.9,0.4
			c-1.3,0.3-2.5,0.9-3.6,1.6c-2.2,1.4-3.9,3.6-4.8,6c-0.5,1.2-0.7,2.5-0.8,3.8c0,1.3,0,2.9,0,4.3L36,199.4l-1.2-1.2l46.1,0.1
			l46.2,0.3L220,199.4z"/>
	</g>
	<g>
		<path class="st2" d="M34.8,180.2c2.1-0.1,4.3,0.4,6.1,1.5c1.8,1.1,3.4,2.6,5.3,3.2c1.9,0.7,4,0.7,6,0.4c2-0.3,3.7-1.4,5.3-2.7
			c1.6-1.3,3.6-2.6,5.9-2.9c0.3,0,0.6-0.1,0.8-0.1l0.8-0.1c0.6-0.1,1.1,0,1.7,0c0.6,0,1.1,0.1,1.7,0.2c0.6,0.1,1.1,0.3,1.6,0.5
			c2.2,0.8,3.9,2.4,5.5,3.4c1.6,1.1,3.5,1.5,5.5,1.4c2,0,3.8-0.5,5.4-1.6c1.6-1,3.2-2.7,5.5-3.5c0.5-0.2,1.1-0.4,1.7-0.5
			c0.6-0.1,1.2-0.2,1.7-0.2c0.6,0,1.1-0.1,1.7,0l0.9,0l0.9,0.1c2.3,0.3,4.5,1.6,6.2,2.9c1.7,1.3,3.2,2.2,5.1,2.4
			c1.8,0.3,3.9,0.2,5.5-0.5c1.7-0.6,3.1-2,5.1-3.3c1.9-1.3,4.4-1.9,6.7-1.9c2.3,0,4.8,0.6,6.7,1.9c1.9,1.3,3.4,2.7,5.1,3.3
			c1.7,0.7,3.7,0.7,5.5,0.5c1.9-0.2,3.4-1.2,5.1-2.5c1.7-1.3,3.9-2.6,6.2-2.9c0.6-0.1,1.2-0.1,1.7-0.2c0.6,0,1.1,0,1.7,0
			c1.1,0.1,2.3,0.3,3.4,0.8c1.1,0.4,2.1,1.1,3,1.7c0.9,0.6,1.7,1.3,2.5,1.8c1.6,1.1,3.4,1.5,5.4,1.6c2,0,3.8-0.4,5.5-1.5
			c1.7-1,3.3-2.6,5.5-3.4c0.5-0.2,1.1-0.3,1.6-0.5c0.6-0.1,1.1-0.2,1.7-0.2c0.6,0,1.1-0.1,1.7,0l0.8,0.1l0.8,0.1
			c2.3,0.3,4.3,1.6,5.9,3c1.6,1.3,3.3,2.4,5.3,2.7c2,0.3,4.1,0.3,6-0.4c1.9-0.6,3.5-2.1,5.3-3.2c1.8-1.1,4-1.6,6.1-1.5
			c-2.1,0.1-4.2,0.6-5.9,1.8c-1.7,1.1-3.2,2.7-5.3,3.5c-2,0.9-4.3,1-6.4,0.7c-2.2-0.2-4.3-1.4-5.9-2.7c-1.7-1.2-3.4-2.3-5.4-2.5
			c-1.9-0.2-4-0.2-5.8,0.6c-1.8,0.7-3.2,2.1-5.1,3.4c-1.9,1.3-4.3,1.9-6.5,1.9c-2.2,0-4.7-0.5-6.6-1.7c-1.9-1.2-3.4-2.6-5.1-3.2
			c-1.7-0.7-3.7-0.7-5.6-0.5c-1.9,0.3-3.4,1.2-5.1,2.5c-1.6,1.3-3.8,2.7-6.2,3l-0.9,0.1l-0.9,0c-0.6,0-1.2,0-1.7,0
			c-0.6,0-1.2-0.1-1.7-0.2c-0.6-0.2-1.2-0.3-1.7-0.5c-1.1-0.4-2.2-1-3-1.7c-0.9-0.6-1.7-1.3-2.5-1.8c-1.6-1-3.3-1.5-5.3-1.5
			c-1.9,0-3.7,0.4-5.3,1.4c-0.8,0.5-1.6,1.1-2.5,1.8c-0.9,0.6-1.9,1.3-3,1.7c-1.1,0.5-2.3,0.7-3.4,0.8c-0.6,0-1.2,0.1-1.7,0
			c-0.6,0-1.2-0.1-1.7-0.2c-2.4-0.3-4.6-1.7-6.2-3c-1.7-1.3-3.2-2.3-5.1-2.5c-1.9-0.3-3.9-0.3-5.6,0.4c-1.8,0.6-3.2,2-5.1,3.2
			c-1.9,1.3-4.4,1.8-6.6,1.8c-2.2,0-4.6-0.6-6.5-1.9c-1.9-1.2-3.3-2.7-5.1-3.4c-1.7-0.8-3.8-0.9-5.8-0.6c-2,0.2-3.7,1.2-5.4,2.5
			c-1.7,1.2-3.7,2.5-5.9,2.7l-0.8,0.1l-0.8,0c-0.5,0-1.1,0-1.6-0.1c-0.5,0-1.1-0.2-1.6-0.3c-0.5-0.2-1.1-0.3-1.6-0.5
			c-2.1-0.8-3.6-2.4-5.3-3.5C39,180.8,36.9,180.3,34.8,180.2z"/>
	</g>
	<g>
		<path class="st2" d="M34.8,172.5c2.1-0.1,4.3,0.4,6.1,1.5c1.8,1.1,3.4,2.6,5.3,3.2c1.9,0.7,4,0.7,6,0.4c2-0.3,3.7-1.4,5.3-2.7
			c1.6-1.3,3.6-2.6,5.9-2.9c0.3,0,0.6-0.1,0.8-0.1l0.8-0.1c0.6-0.1,1.1,0,1.7,0c0.6,0,1.1,0.1,1.7,0.2c0.6,0.1,1.1,0.3,1.6,0.5
			c2.2,0.8,3.9,2.4,5.5,3.4c1.6,1.1,3.5,1.5,5.5,1.4c2,0,3.8-0.5,5.4-1.6c1.6-1,3.2-2.7,5.5-3.5c0.5-0.2,1.1-0.4,1.7-0.5
			c0.6-0.1,1.2-0.2,1.7-0.2c0.6,0,1.1-0.1,1.7,0l0.9,0l0.9,0.1c2.3,0.3,4.5,1.6,6.2,2.9c1.7,1.3,3.2,2.2,5.1,2.4
			c1.8,0.3,3.9,0.2,5.5-0.5c1.7-0.6,3.1-2,5.1-3.3c1.9-1.3,4.4-1.9,6.7-1.9c2.3,0,4.8,0.6,6.7,1.9c1.9,1.3,3.4,2.7,5.1,3.3
			c1.7,0.7,3.7,0.7,5.5,0.5c1.9-0.2,3.4-1.2,5.1-2.5c1.7-1.3,3.9-2.6,6.2-2.9c0.6-0.1,1.2-0.1,1.7-0.2c0.6,0,1.1,0,1.7,0
			c1.1,0.1,2.3,0.3,3.4,0.8c1.1,0.4,2.1,1.1,3,1.7c0.9,0.6,1.7,1.3,2.5,1.8c1.6,1.1,3.4,1.5,5.4,1.6c2,0,3.8-0.4,5.5-1.5
			c1.7-1,3.3-2.6,5.5-3.4c0.5-0.2,1.1-0.3,1.6-0.5c0.6-0.1,1.1-0.2,1.7-0.2c0.6,0,1.1-0.1,1.7,0l0.8,0.1l0.8,0.1
			c2.3,0.3,4.3,1.6,5.9,3c1.6,1.3,3.3,2.4,5.3,2.7c2,0.3,4.1,0.3,6-0.4c1.9-0.6,3.5-2.1,5.3-3.2c1.8-1.1,4-1.6,6.1-1.5
			c-2.1,0.1-4.2,0.6-5.9,1.8c-1.7,1.1-3.2,2.7-5.3,3.5c-2,0.9-4.3,1-6.4,0.7c-2.2-0.2-4.3-1.4-5.9-2.7c-1.7-1.2-3.4-2.3-5.4-2.5
			c-1.9-0.2-4-0.2-5.8,0.6c-1.8,0.7-3.2,2.1-5.1,3.4c-1.9,1.3-4.3,1.9-6.5,1.9c-2.2,0-4.7-0.5-6.6-1.7c-1.9-1.2-3.4-2.6-5.1-3.2
			c-1.7-0.7-3.7-0.7-5.6-0.5c-1.9,0.3-3.4,1.2-5.1,2.5c-1.6,1.3-3.8,2.7-6.2,3l-0.9,0.1l-0.9,0c-0.6,0-1.2,0-1.7,0
			c-0.6,0-1.2-0.1-1.7-0.2c-0.6-0.2-1.2-0.3-1.7-0.5c-1.1-0.4-2.2-1-3-1.7c-0.9-0.6-1.7-1.3-2.5-1.8c-1.6-1-3.3-1.5-5.3-1.5
			c-1.9,0-3.7,0.4-5.3,1.4c-0.8,0.5-1.6,1.1-2.5,1.8c-0.9,0.6-1.9,1.3-3,1.7c-1.1,0.5-2.3,0.7-3.4,0.8c-0.6,0-1.2,0.1-1.7,0
			c-0.6,0-1.2-0.1-1.7-0.2c-2.4-0.3-4.6-1.7-6.2-3c-1.7-1.3-3.2-2.3-5.1-2.5c-1.9-0.3-3.9-0.3-5.6,0.4c-1.8,0.6-3.2,2-5.1,3.2
			c-1.9,1.3-4.4,1.8-6.6,1.8c-2.2,0-4.6-0.6-6.5-1.9c-1.9-1.2-3.3-2.7-5.1-3.4c-1.7-0.8-3.8-0.9-5.8-0.6c-2,0.2-3.7,1.2-5.4,2.5
			c-1.7,1.2-3.7,2.5-5.9,2.7l-0.8,0.1l-0.8,0c-0.5,0-1.1,0-1.6-0.1c-0.5,0-1.1-0.2-1.6-0.3c-0.5-0.2-1.1-0.3-1.6-0.5
			c-2.1-0.8-3.6-2.4-5.3-3.5C39,173.2,36.9,172.6,34.8,172.5z"/>
	</g>
</g>
<g>
	<path class="st0" d="M156.6,97.7H98.3V67.2c0-7.6,6.2-13.7,13.7-13.7h30.8c7.6,0,13.7,6.2,13.7,13.7V97.7z"/>
	<path class="st1" d="M156.6,97.7l-28.8,0.7c-9.7,0.2-19.6,0.4-29.5,0.5c-0.7,0-1.2-0.5-1.2-1.2l0,0l0,0L97,80.8l0-8.4l0-4.2l0-1.1
		c0-0.4,0-0.8,0-1.2c0.1-0.8,0.2-1.5,0.4-2.3c0.7-3,2.4-5.8,4.7-7.8c2.3-2.1,5.3-3.4,8.3-3.7c1.6-0.1,2.9-0.1,4.4-0.1l4.2,0
		c2.8,0,5.6,0,8.4,0.1l8.4,0.1l4.2,0.1c1.4,0,2.8,0,4.3,0.2c3,0.3,5.9,1.7,8.1,3.7c2.2,2,3.8,4.7,4.4,7.6c0.3,1.4,0.4,3,0.3,4.4
		l-0.1,4.3L157,81L156.6,97.7z M156.6,97.7l-0.4-17l-0.2-8.4l-0.1-4.2c0-1.4-0.1-2.7-0.4-4c-0.7-2.6-2.1-4.9-4.1-6.6
		c-2-1.7-4.5-2.8-7.1-3c-1.3-0.1-2.7,0-4.1,0l-4.2,0.1l-8.4,0.1c-2.8,0-5.6,0.1-8.4,0.1l-4.2,0c-1.4,0-2.9,0-4.1,0.1
		c-2.5,0.3-4.9,1.4-6.9,3c-1.9,1.7-3.3,3.9-3.9,6.4c-0.2,0.6-0.2,1.2-0.3,1.9c0,0.3,0,0.6,0,1l0,1l0,4.2l0,8.4l-0.1,16.9l-1.2-1.2
		c9.6,0.1,19.1,0.2,28.8,0.5L156.6,97.7z"/>
</g>
<g>
	<path class="st2" d="M100.1,77.9c1.3-0.1,2.6,0,3.9,0.4c1.3,0.4,2.4,1.2,3.4,2c1,0.8,2,1.5,3.1,1.8c1.1,0.4,2.2,0.5,3.3,0.5
		c1.2-0.1,2.2-0.3,3.2-0.8c1-0.5,1.8-1.2,2.8-2c0.9-0.8,2.1-1.8,3.4-2.4c1.3-0.6,2.8-0.9,4.2-0.9c1.4,0,2.9,0.3,4.2,0.9
		c1.4,0.6,2.5,1.5,3.4,2.4c0.9,0.8,1.8,1.6,2.8,2c1,0.5,2.1,0.7,3.2,0.8c1.2,0,2.3-0.1,3.3-0.5c1.1-0.4,2-1.1,3.1-1.8
		c1-0.7,2.1-1.5,3.4-2c1.3-0.5,2.6-0.5,3.9-0.4c-1.3,0.2-2.5,0.5-3.5,1.1c-1.1,0.6-2,1.4-2.9,2.3c-0.9,0.9-1.9,1.8-3.2,2.4
		c-1.3,0.7-2.7,0.9-4.1,1c-1.4,0-2.8-0.1-4.2-0.7c-1.4-0.6-2.5-1.4-3.5-2.2c-1-0.8-1.9-1.5-2.8-1.9c-1-0.4-2-0.6-3.2-0.6
		c-1.1,0-2.2,0.2-3.2,0.6c-1,0.4-1.9,1.1-2.8,1.9c-1,0.8-2.1,1.7-3.5,2.2c-1.3,0.6-2.8,0.8-4.2,0.7c-1.4-0.1-2.8-0.3-4.1-1
		c-1.3-0.6-2.3-1.6-3.2-2.4c-0.9-0.9-1.8-1.7-2.9-2.3C102.6,78.4,101.3,78.1,100.1,77.9z"/>
</g>
<g>
	<path class="st2" d="M100.1,70.3c1.3-0.1,2.6,0,3.9,0.4c1.3,0.4,2.4,1.2,3.4,2c1,0.8,2,1.5,3.1,1.8c1.1,0.4,2.2,0.5,3.3,0.5
		c1.2-0.1,2.2-0.3,3.2-0.8c1-0.5,1.8-1.2,2.8-2c0.9-0.8,2.1-1.8,3.4-2.4c1.3-0.6,2.8-0.9,4.2-0.9c1.4,0,2.9,0.3,4.2,0.9
		c1.4,0.6,2.5,1.5,3.4,2.4c0.9,0.8,1.8,1.6,2.8,2c1,0.5,2.1,0.7,3.2,0.8c1.2,0,2.3-0.1,3.3-0.5c1.1-0.4,2-1.1,3.1-1.8
		c1-0.7,2.1-1.5,3.4-2c1.3-0.5,2.6-0.5,3.9-0.4c-1.3,0.2-2.5,0.5-3.5,1.1c-1.1,0.6-2,1.4-2.9,2.3c-0.9,0.9-1.9,1.8-3.2,2.4
		c-1.3,0.7-2.7,0.9-4.1,1c-1.4,0-2.8-0.1-4.2-0.7c-1.4-0.6-2.5-1.4-3.5-2.2c-1-0.8-1.9-1.5-2.8-1.9c-1-0.4-2-0.6-3.2-0.6
		c-1.1,0-2.2,0.2-3.2,0.6c-1,0.4-1.9,1.1-2.8,1.9c-1,0.8-2.1,1.7-3.5,2.2c-1.3,0.6-2.8,0.8-4.2,0.7c-1.4-0.1-2.8-0.3-4.1-1
		c-1.3-0.6-2.3-1.6-3.2-2.4c-0.9-0.9-1.8-1.7-2.9-2.3C102.6,70.7,101.3,70.4,100.1,70.3z"/>
</g>
<g>
	<path class="st0" d="M154.5,23.6c0.5-3.7-2.1-7.2-5.8-7.7c-2.6-0.4-5,0.7-6.4,2.7c-0.8-2.3-2.9-4-5.4-4.4c-3.7-0.5-7.2,2.1-7.7,5.8
		c0,0.2-0.1,0.5-0.1,0.7h0c0,0-0.9,5.5,10,17.9c0,0,0.2,0.3,0.6,0.1c9.2-5.8,12.6-10.3,13.9-12.6C154.1,25.4,154.4,24.5,154.5,23.6z
		"/>
	<path class="st2" d="M154.5,23.6c0.2-1.5-0.1-3-0.9-4.3c-0.7-1.3-2-2.3-3.3-2.8c-1.4-0.5-2.9-0.5-4.3-0.1c-1.4,0.4-2.5,1.4-3.3,2.5
		c-0.2,0.3-0.5,0.3-0.8,0.2c-0.1-0.1-0.2-0.1-0.2-0.2l0-0.1c-0.6-1.3-1.6-2.4-2.8-3c-1.2-0.6-2.6-0.8-3.9-0.5c-1.3,0.3-2.5,1-3.3,2
		c-0.8,1-1.2,2.2-1.3,3.5l-1.3,1.3l1.3-1.1c0,0,0,0.2,0,0.4c0,0.2,0,0.3,0.1,0.5c0.1,0.4,0.2,0.7,0.3,1.1c0.2,0.8,0.5,1.5,0.8,2.3
		c0.6,1.5,1.5,3,2.3,4.5c0.4,0.7,0.9,1.4,1.4,2.2c0.5,0.7,0.9,1.4,1.4,2.1c1,1.4,2,2.8,3.1,4.1l0.1,0.1c-0.1-0.1-0.1-0.1-0.2-0.1
		c-0.1,0-0.2,0-0.2,0l0.6-0.3l1.2-0.7c0.8-0.5,1.6-1,2.4-1.5c1.6-1,3.1-2.1,4.5-3.2c1.4-1.2,2.8-2.5,4-3.9c0.6-0.7,1.1-1.5,1.6-2.3
		C154,25.4,154.4,24.5,154.5,23.6z M154.5,23.6c-0.1,0.9-0.4,1.8-0.9,2.6c-0.4,0.8-1,1.6-1.5,2.3c-1.1,1.5-2.4,2.9-3.8,4.2
		c-1.3,1.3-2.8,2.5-4.2,3.7c-0.7,0.6-1.5,1.2-2.2,1.7l-1.1,0.8l-0.6,0.4c-0.2,0.1-0.5,0.2-0.9,0.2c-0.4-0.1-0.6-0.2-0.8-0.5l0.1,0.1
		l-1.8-1.9c-0.6-0.6-1.2-1.3-1.8-2c-1.2-1.3-2.2-2.8-3.2-4.3c-1-1.5-1.9-3.1-2.6-4.7c-0.4-0.8-0.7-1.7-1-2.6
		c-0.1-0.5-0.2-0.9-0.3-1.4c0-0.2-0.1-0.5-0.1-0.8c0-0.3,0-0.5,0-0.9l0.2-1.6c0-0.4,0.4-0.6,0.7-0.6c0.4,0,0.6,0.4,0.6,0.7
		c0,0.2-0.1,0.3-0.2,0.4l-1.3,1.3c0.1-1.9,0.8-3.7,2.1-5c1.3-1.3,3-2.2,4.8-2.4c1.8-0.2,3.6,0.2,5.1,1.2c1.5,0.9,2.6,2.4,3.1,4
		l-1-0.1c1-1.3,2.5-2.1,4-2.5c1.5-0.4,3.2-0.2,4.6,0.5c1.4,0.6,2.6,1.7,3.3,3C154.5,20.5,154.7,22.1,154.5,23.6z"/>
</g>
<g>
	<path class="st0" d="M121.5,22.3c-0.5-3-3.3-5-6.3-4.5c-2,0.3-3.6,1.8-4.3,3.6c-1.2-1.5-3.2-2.4-5.2-2c-3,0.5-5,3.3-4.5,6.3
		c0,0.2,0.1,0.4,0.1,0.6h0c0,0,0.7,4.4,12.1,11.2c0,0,0.3,0.2,0.5-0.1c5.6-6.7,7.1-10.9,7.5-13C121.6,23.7,121.6,23,121.5,22.3z"/>
	<path class="st2" d="M121.5,22.3c-0.2-1.2-0.8-2.3-1.7-3.1c-0.9-0.8-2.1-1.2-3.2-1.3c-1.2-0.1-2.3,0.3-3.2,1
		c-0.9,0.7-1.6,1.7-1.8,2.7c-0.1,0.3-0.4,0.5-0.7,0.4c-0.1,0-0.2-0.1-0.3-0.2l-0.1-0.1c-0.8-0.8-1.8-1.4-2.9-1.5
		c-1.1-0.2-2.1,0.1-3,0.6c-0.9,0.5-1.5,1.3-1.9,2.2c-0.3,0.9-0.4,1.9-0.1,2.8c0.2,0.7-0.2,1.4-0.9,1.6c-0.1,0-0.2,0-0.4,0.1h0
		l1.3-1.5c0-0.1,0,0.1,0.1,0.2c0.1,0.1,0.1,0.2,0.2,0.4c0.1,0.3,0.3,0.5,0.5,0.8c0.3,0.5,0.7,1,1.2,1.5c0.9,1,1.8,1.9,2.8,2.8
		c1,0.9,2.1,1.7,3.2,2.6c1.1,0.8,2.2,1.6,3.3,2.4l0.1,0c-0.1-0.1-0.2-0.1-0.3-0.1c-0.1,0-0.2,0.1-0.2,0.1l0.4-0.4l0.8-0.8
		c0.5-0.6,1-1.1,1.5-1.7c1-1.1,1.9-2.3,2.7-3.5c0.8-1.2,1.5-2.5,2.1-3.9c0.3-0.7,0.5-1.4,0.7-2.1C121.6,23.8,121.6,23,121.5,22.3z
		 M121.5,22.3c0.1,0.7,0.1,1.5-0.1,2.2c-0.1,0.7-0.3,1.5-0.6,2.2c-0.5,1.4-1.1,2.8-1.8,4.1c-0.7,1.3-1.5,2.6-2.3,3.9
		c-0.4,0.6-0.8,1.3-1.3,1.9l-0.7,0.9l-0.3,0.5c-0.1,0.2-0.4,0.4-0.7,0.4c-0.3,0-0.6,0-0.9-0.2l0.1,0c-1.3-0.6-2.5-1.3-3.7-2.1
		c-1.2-0.7-2.4-1.6-3.5-2.4c-1.1-0.9-2.2-1.9-3.2-3c-0.5-0.6-1-1.1-1.4-1.8c-0.2-0.3-0.4-0.7-0.6-1c-0.1-0.2-0.2-0.4-0.3-0.6
		c-0.1-0.2-0.1-0.4-0.2-0.8c-0.1-0.7,0.3-1.4,1-1.5c0.1,0,0.2,0,0.2,0l0.1,0h0l-1.3,1.7c-0.4-1.5-0.3-3.1,0.4-4.5
		c0.7-1.4,1.8-2.5,3.2-3.1c1.4-0.6,2.9-0.7,4.3-0.3c1.4,0.4,2.6,1.3,3.4,2.4l-1,0.2c0.5-1.2,1.4-2.3,2.5-2.9
		c1.1-0.6,2.4-0.9,3.6-0.8c1.2,0.1,2.4,0.7,3.3,1.5C120.7,19.9,121.3,21.1,121.5,22.3z"/>
</g>
<g>
	<g>
		<path class="st2" d="M42.7,193.8c-0.5-5.9-0.7-11.7-0.7-17.6c0-5.9,0.1-11.7,0.7-17.6c0.5,5.9,0.7,11.7,0.7,17.6
			C43.4,182.1,43.3,188,42.7,193.8z"/>
	</g>
	<g>
		<path class="st2" d="M80.3,140.9c-0.5-4.3-0.7-8.6-0.7-12.9c0-4.3,0.1-8.6,0.7-12.9c0.5,4.3,0.7,8.6,0.7,12.9
			C80.9,132.3,80.8,136.6,80.3,140.9z"/>
	</g>
</g>
<line class="st3" x1="113.9" y1="37.4" x2="116.5" y2="52.5"/>
<line class="st3" x1="139.1" y1="38.6" x2="136.6" y2="53.4"/>
</svg>
